<mxfile host="Electron" modified="2025-07-07T03:08:52.823Z" agent="Mozilla/5.0 (Windows NT 10.0; Win64; x64) AppleWebKit/537.36 (KHTML, like Gecko) draw.io/24.2.5 Chrome/120.0.6099.109 Electron/28.1.0 Safari/537.36" etag="irxZKJ6ZTFtX-b5n5Sjx" version="24.2.5" type="device">
  <diagram name="Página-1" id="YNMzeBByaisokqs7-tkx">
    <mxGraphModel dx="1354" dy="656" grid="1" gridSize="10" guides="1" tooltips="1" connect="1" arrows="1" fold="1" page="1" pageScale="1" pageWidth="827" pageHeight="1169" math="0" shadow="0">
      <root>
        <mxCell id="0" />
        <mxCell id="1" parent="0" />
        <mxCell id="8PR7JuArwDbsVbcmH2Fc-8" value="Lançamentos" style="rounded=0;whiteSpace=wrap;html=1;sketch=1;hachureGap=4;jiggle=2;curveFitting=1;fontFamily=Architects Daughter;fontSource=https%3A%2F%2Ffonts.googleapis.com%2Fcss%3Ffamily%3DArchitects%2BDaughter;verticalAlign=top;fontSize=15;fontStyle=1;fillColor=#f5f5f5;strokeColor=#666666;fontColor=#333333;" parent="1" vertex="1">
          <mxGeometry x="80" y="640" width="480" height="550" as="geometry" />
        </mxCell>
        <mxCell id="8PR7JuArwDbsVbcmH2Fc-1" value="API Gateway" style="shape=cylinder3;html=1;boundedLbl=1;backgroundOutline=1;size=15;sketch=1;hachureGap=4;jiggle=2;curveFitting=1;fontFamily=Architects Daughter;fontSource=https%3A%2F%2Ffonts.googleapis.com%2Fcss%3Ffamily%3DArchitects%2BDaughter;rotation=90;fillColor=#ffe6cc;strokeColor=#d79b00;verticalAlign=middle;horizontal=0;fontSize=16;fontStyle=1" parent="1" vertex="1">
          <mxGeometry x="498.25" y="37.66" width="72.97" height="831.19" as="geometry" />
        </mxCell>
        <mxCell id="8PR7JuArwDbsVbcmH2Fc-2" value="Dase de Dados&lt;div style=&quot;font-size: 16px;&quot;&gt;[NoSQL]&lt;/div&gt;" style="shape=cylinder3;whiteSpace=wrap;html=1;boundedLbl=1;backgroundOutline=1;size=15;sketch=1;hachureGap=4;jiggle=2;curveFitting=1;fontFamily=Architects Daughter;fontSource=https%3A%2F%2Ffonts.googleapis.com%2Fcss%3Ffamily%3DArchitects%2BDaughter;fontSize=16;fillColor=#d5e8d4;strokeColor=#82b366;fillOpacity=100;strokeOpacity=100;fontStyle=0;shadow=0;" parent="1" vertex="1">
          <mxGeometry x="135" y="950" width="130" height="173.33" as="geometry" />
        </mxCell>
        <mxCell id="8PR7JuArwDbsVbcmH2Fc-4" value="Lista&lt;div&gt;lançamentos&lt;div&gt;&lt;div&gt;[Função Serveless]&lt;/div&gt;&lt;/div&gt;&lt;/div&gt;" style="whiteSpace=wrap;html=1;aspect=fixed;sketch=1;hachureGap=4;jiggle=2;curveFitting=1;fontFamily=Architects Daughter;fontSource=https%3A%2F%2Ffonts.googleapis.com%2Fcss%3Ffamily%3DArchitects%2BDaughter;fontStyle=0;fontSize=16;fillColor=#e1d5e7;strokeColor=#9673a6;" parent="1" vertex="1">
          <mxGeometry x="120" y="680" width="170" height="170" as="geometry" />
        </mxCell>
        <mxCell id="8PR7JuArwDbsVbcmH2Fc-6" value="&lt;div&gt;&lt;div&gt;Processa&lt;/div&gt;&lt;div&gt;lançamento&amp;nbsp;&lt;/div&gt;&lt;div&gt;[Função Serveless]&lt;/div&gt;&lt;/div&gt;" style="whiteSpace=wrap;html=1;aspect=fixed;sketch=1;hachureGap=4;jiggle=2;curveFitting=1;fontFamily=Architects Daughter;fontSource=https%3A%2F%2Ffonts.googleapis.com%2Fcss%3Ffamily%3DArchitects%2BDaughter;fontStyle=0;fontSize=16;fillColor=#e1d5e7;strokeColor=#9673a6;" parent="1" vertex="1">
          <mxGeometry x="350" y="680" width="170" height="170" as="geometry" />
        </mxCell>
        <mxCell id="8PR7JuArwDbsVbcmH2Fc-9" value="" style="endArrow=classic;html=1;rounded=0;sketch=1;hachureGap=4;jiggle=2;curveFitting=1;fontFamily=Architects Daughter;fontSource=https%3A%2F%2Ffonts.googleapis.com%2Fcss%3Ffamily%3DArchitects%2BDaughter;entryX=0.5;entryY=0;entryDx=0;entryDy=0;entryPerimeter=0;" parent="1" target="8PR7JuArwDbsVbcmH2Fc-2" edge="1">
          <mxGeometry width="50" height="50" relative="1" as="geometry">
            <mxPoint x="200" y="850" as="sourcePoint" />
            <mxPoint x="510" y="1020" as="targetPoint" />
            <Array as="points">
              <mxPoint x="200" y="920" />
              <mxPoint x="200" y="940" />
            </Array>
          </mxGeometry>
        </mxCell>
        <mxCell id="8PR7JuArwDbsVbcmH2Fc-30" value="Busca&lt;div style=&quot;font-size: 14px;&quot;&gt;lançamentos&lt;/div&gt;" style="edgeLabel;html=1;align=center;verticalAlign=middle;resizable=0;points=[];sketch=1;hachureGap=4;jiggle=2;curveFitting=1;fontFamily=Architects Daughter;fontSource=https%3A%2F%2Ffonts.googleapis.com%2Fcss%3Ffamily%3DArchitects%2BDaughter;fontSize=14;" parent="8PR7JuArwDbsVbcmH2Fc-9" vertex="1" connectable="0">
          <mxGeometry x="-0.1627" y="-3" relative="1" as="geometry">
            <mxPoint x="-47" y="-1" as="offset" />
          </mxGeometry>
        </mxCell>
        <mxCell id="8PR7JuArwDbsVbcmH2Fc-10" value="" style="endArrow=classic;html=1;rounded=0;sketch=1;hachureGap=4;jiggle=2;curveFitting=1;fontFamily=Architects Daughter;fontSource=https%3A%2F%2Ffonts.googleapis.com%2Fcss%3Ffamily%3DArchitects%2BDaughter;exitX=0;exitY=0.5;exitDx=0;exitDy=0;entryX=1;entryY=0;entryDx=0;entryDy=50.8325;entryPerimeter=0;" parent="1" source="8PR7JuArwDbsVbcmH2Fc-6" target="8PR7JuArwDbsVbcmH2Fc-2" edge="1">
          <mxGeometry width="50" height="50" relative="1" as="geometry">
            <mxPoint x="215" y="860" as="sourcePoint" />
            <mxPoint x="320" y="980" as="targetPoint" />
            <Array as="points">
              <mxPoint x="320" y="765" />
              <mxPoint x="320" y="1001" />
            </Array>
          </mxGeometry>
        </mxCell>
        <mxCell id="ev5YEBmFirK6nSt7EQAG-13" value="2 - Valida e salva&lt;div&gt;lançamento&lt;/div&gt;" style="edgeLabel;html=1;align=center;verticalAlign=middle;resizable=0;points=[];sketch=1;hachureGap=4;jiggle=2;curveFitting=1;fontFamily=Architects Daughter;fontSource=https%3A%2F%2Ffonts.googleapis.com%2Fcss%3Ffamily%3DArchitects%2BDaughter;fontSize=14;" parent="8PR7JuArwDbsVbcmH2Fc-10" vertex="1" connectable="0">
          <mxGeometry x="0.0645" y="3" relative="1" as="geometry">
            <mxPoint x="67" y="-6" as="offset" />
          </mxGeometry>
        </mxCell>
        <mxCell id="8PR7JuArwDbsVbcmH2Fc-11" value="Consolidação" style="rounded=0;whiteSpace=wrap;html=1;sketch=1;hachureGap=4;jiggle=2;curveFitting=1;fontFamily=Architects Daughter;fontSource=https%3A%2F%2Ffonts.googleapis.com%2Fcss%3Ffamily%3DArchitects%2BDaughter;verticalAlign=top;fontSize=15;fontStyle=1;fillColor=#f5f5f5;strokeColor=#666666;fontColor=#333333;align=center;" parent="1" vertex="1">
          <mxGeometry x="760" y="640" width="520" height="550" as="geometry" />
        </mxCell>
        <mxCell id="8PR7JuArwDbsVbcmH2Fc-12" value="Dase de Dados&lt;div style=&quot;font-size: 16px;&quot;&gt;[Relacional]&lt;/div&gt;" style="shape=cylinder3;whiteSpace=wrap;html=1;boundedLbl=1;backgroundOutline=1;size=15;sketch=1;hachureGap=4;jiggle=2;curveFitting=1;fontFamily=Architects Daughter;fontSource=https%3A%2F%2Ffonts.googleapis.com%2Fcss%3Ffamily%3DArchitects%2BDaughter;fontSize=16;fillColor=#d5e8d4;strokeColor=#82b366;fillOpacity=100;strokeOpacity=100;fontStyle=0;shadow=0;" parent="1" vertex="1">
          <mxGeometry x="1090" y="946.67" width="130" height="173.33" as="geometry" />
        </mxCell>
        <mxCell id="8PR7JuArwDbsVbcmH2Fc-13" value="&lt;div&gt;Consolida&lt;/div&gt;&lt;div&gt;lançamentos&lt;/div&gt;&lt;div&gt;[Função Serveless]&lt;/div&gt;" style="whiteSpace=wrap;html=1;aspect=fixed;sketch=1;hachureGap=4;jiggle=2;curveFitting=1;fontFamily=Architects Daughter;fontSource=https%3A%2F%2Ffonts.googleapis.com%2Fcss%3Ffamily%3DArchitects%2BDaughter;fontStyle=0;fontSize=16;fillColor=#e1d5e7;strokeColor=#9673a6;" parent="1" vertex="1">
          <mxGeometry x="800" y="680" width="170" height="170" as="geometry" />
        </mxCell>
        <mxCell id="8PR7JuArwDbsVbcmH2Fc-15" value="" style="endArrow=classic;html=1;rounded=0;sketch=1;hachureGap=4;jiggle=2;curveFitting=1;fontFamily=Architects Daughter;fontSource=https%3A%2F%2Ffonts.googleapis.com%2Fcss%3Ffamily%3DArchitects%2BDaughter;exitX=0.75;exitY=1;exitDx=0;exitDy=0;entryX=0;entryY=0.5;entryDx=0;entryDy=0;entryPerimeter=0;" parent="1" source="8PR7JuArwDbsVbcmH2Fc-13" target="8PR7JuArwDbsVbcmH2Fc-12" edge="1">
          <mxGeometry width="50" height="50" relative="1" as="geometry">
            <mxPoint x="1160" y="950" as="sourcePoint" />
            <mxPoint x="1030" y="1070" as="targetPoint" />
            <Array as="points">
              <mxPoint x="928" y="1033" />
            </Array>
          </mxGeometry>
        </mxCell>
        <mxCell id="8PR7JuArwDbsVbcmH2Fc-34" value="4 - Atualiza consolidação&lt;div style=&quot;font-size: 14px;&quot;&gt;incremental&lt;/div&gt;" style="edgeLabel;html=1;align=center;verticalAlign=middle;resizable=0;points=[];sketch=1;hachureGap=4;jiggle=2;curveFitting=1;fontFamily=Architects Daughter;fontSource=https%3A%2F%2Ffonts.googleapis.com%2Fcss%3Ffamily%3DArchitects%2BDaughter;fontSize=14;" parent="8PR7JuArwDbsVbcmH2Fc-15" vertex="1" connectable="0">
          <mxGeometry x="-0.3789" y="-2" relative="1" as="geometry">
            <mxPoint x="89" y="-54" as="offset" />
          </mxGeometry>
        </mxCell>
        <mxCell id="8PR7JuArwDbsVbcmH2Fc-18" value="Fila" style="shape=cylinder3;whiteSpace=wrap;html=1;boundedLbl=1;backgroundOutline=1;size=15;sketch=1;hachureGap=4;jiggle=2;curveFitting=1;fontFamily=Architects Daughter;fontSource=https%3A%2F%2Ffonts.googleapis.com%2Fcss%3Ffamily%3DArchitects%2BDaughter;rotation=90;fontStyle=0;fontSize=16;horizontal=0;fillColor=#fff2cc;strokeColor=#d6b656;" parent="1" vertex="1">
          <mxGeometry x="640" y="711.66" width="40" height="106.67" as="geometry" />
        </mxCell>
        <mxCell id="8PR7JuArwDbsVbcmH2Fc-19" value="" style="endArrow=classic;html=1;rounded=0;sketch=1;hachureGap=4;jiggle=2;curveFitting=1;fontFamily=Architects Daughter;fontSource=https%3A%2F%2Ffonts.googleapis.com%2Fcss%3Ffamily%3DArchitects%2BDaughter;entryX=0.5;entryY=1;entryDx=0;entryDy=0;entryPerimeter=0;dashed=1;exitX=1;exitY=0.5;exitDx=0;exitDy=0;" parent="1" source="8PR7JuArwDbsVbcmH2Fc-6" target="8PR7JuArwDbsVbcmH2Fc-18" edge="1">
          <mxGeometry width="50" height="50" relative="1" as="geometry">
            <mxPoint x="440" y="850" as="sourcePoint" />
            <mxPoint x="650" y="900" as="targetPoint" />
            <Array as="points" />
          </mxGeometry>
        </mxCell>
        <mxCell id="8PR7JuArwDbsVbcmH2Fc-21" value="3 - Envia lançamento&lt;div&gt;para consolidação&lt;/div&gt;" style="edgeLabel;html=1;align=center;verticalAlign=middle;resizable=0;points=[];sketch=1;hachureGap=4;jiggle=2;curveFitting=1;fontFamily=Architects Daughter;fontSource=https%3A%2F%2Ffonts.googleapis.com%2Fcss%3Ffamily%3DArchitects%2BDaughter;fontSize=14;" parent="8PR7JuArwDbsVbcmH2Fc-19" vertex="1" connectable="0">
          <mxGeometry x="-0.3037" relative="1" as="geometry">
            <mxPoint x="107" y="53" as="offset" />
          </mxGeometry>
        </mxCell>
        <mxCell id="8PR7JuArwDbsVbcmH2Fc-20" value="" style="endArrow=classic;html=1;rounded=0;sketch=1;hachureGap=4;jiggle=2;curveFitting=1;fontFamily=Architects Daughter;fontSource=https%3A%2F%2Ffonts.googleapis.com%2Fcss%3Ffamily%3DArchitects%2BDaughter;exitX=0.5;exitY=0;exitDx=0;exitDy=0;exitPerimeter=0;entryX=0;entryY=0.5;entryDx=0;entryDy=0;fillColor=#fff2cc;strokeColor=#000000;dashed=1;" parent="1" source="8PR7JuArwDbsVbcmH2Fc-18" target="8PR7JuArwDbsVbcmH2Fc-13" edge="1">
          <mxGeometry width="50" height="50" relative="1" as="geometry">
            <mxPoint x="783.3349999999998" y="1059.9949999999997" as="sourcePoint" />
            <mxPoint x="860" y="860" as="targetPoint" />
            <Array as="points">
              <mxPoint x="730" y="765" />
            </Array>
          </mxGeometry>
        </mxCell>
        <mxCell id="8PR7JuArwDbsVbcmH2Fc-23" style="edgeStyle=orthogonalEdgeStyle;rounded=0;sketch=1;hachureGap=4;jiggle=2;curveFitting=1;orthogonalLoop=1;jettySize=auto;html=1;fontFamily=Architects Daughter;fontSource=https%3A%2F%2Ffonts.googleapis.com%2Fcss%3Ffamily%3DArchitects%2BDaughter;entryX=1;entryY=0.5;entryDx=0;entryDy=0;" parent="1" source="8PR7JuArwDbsVbcmH2Fc-22" target="8PR7JuArwDbsVbcmH2Fc-13" edge="1">
          <mxGeometry relative="1" as="geometry">
            <mxPoint x="1200" y="765" as="targetPoint" />
          </mxGeometry>
        </mxCell>
        <mxCell id="8PR7JuArwDbsVbcmH2Fc-27" value="7 - Executa&lt;div&gt;consolidação&lt;div&gt;do dia&lt;/div&gt;&lt;/div&gt;" style="edgeLabel;html=1;align=center;verticalAlign=middle;resizable=0;points=[];sketch=1;hachureGap=4;jiggle=2;curveFitting=1;fontFamily=Architects Daughter;fontSource=https%3A%2F%2Ffonts.googleapis.com%2Fcss%3Ffamily%3DArchitects%2BDaughter;fontSize=14;" parent="8PR7JuArwDbsVbcmH2Fc-23" vertex="1" connectable="0">
          <mxGeometry x="-0.0098" relative="1" as="geometry">
            <mxPoint x="-1" y="35" as="offset" />
          </mxGeometry>
        </mxCell>
        <mxCell id="8PR7JuArwDbsVbcmH2Fc-22" value="Consolidação&lt;div&gt;&lt;div&gt;[Agendador]&lt;/div&gt;&lt;/div&gt;" style="whiteSpace=wrap;html=1;aspect=fixed;sketch=1;hachureGap=4;jiggle=2;curveFitting=1;fontFamily=Architects Daughter;fontSource=https%3A%2F%2Ffonts.googleapis.com%2Fcss%3Ffamily%3DArchitects%2BDaughter;fontStyle=0;fontSize=16;fillColor=#dae8fc;strokeColor=#6c8ebf;" parent="1" vertex="1">
          <mxGeometry x="1075" y="680" width="170" height="170" as="geometry" />
        </mxCell>
        <mxCell id="8PR7JuArwDbsVbcmH2Fc-24" value="" style="endArrow=classic;html=1;rounded=0;sketch=1;hachureGap=4;jiggle=2;curveFitting=1;fontFamily=Architects Daughter;fontSource=https%3A%2F%2Ffonts.googleapis.com%2Fcss%3Ffamily%3DArchitects%2BDaughter;exitX=1.004;exitY=0.621;exitDx=0;exitDy=0;exitPerimeter=0;entryX=0.5;entryY=0;entryDx=0;entryDy=0;" parent="1" source="8PR7JuArwDbsVbcmH2Fc-1" target="8PR7JuArwDbsVbcmH2Fc-6" edge="1">
          <mxGeometry width="50" height="50" relative="1" as="geometry">
            <mxPoint x="490" y="600" as="sourcePoint" />
            <mxPoint x="540" y="550" as="targetPoint" />
          </mxGeometry>
        </mxCell>
        <mxCell id="ev5YEBmFirK6nSt7EQAG-11" value="1 - Envia&lt;div style=&quot;font-size: 14px;&quot;&gt;Lançamento&lt;/div&gt;" style="edgeLabel;html=1;align=center;verticalAlign=middle;resizable=0;points=[];sketch=1;hachureGap=4;jiggle=2;curveFitting=1;fontFamily=Architects Daughter;fontSource=https%3A%2F%2Ffonts.googleapis.com%2Fcss%3Ffamily%3DArchitects%2BDaughter;fontSize=14;" parent="8PR7JuArwDbsVbcmH2Fc-24" vertex="1" connectable="0">
          <mxGeometry x="-0.0561" y="-2" relative="1" as="geometry">
            <mxPoint x="-55" y="-9" as="offset" />
          </mxGeometry>
        </mxCell>
        <mxCell id="8PR7JuArwDbsVbcmH2Fc-25" value="" style="endArrow=classic;html=1;rounded=0;sketch=1;hachureGap=4;jiggle=2;curveFitting=1;fontFamily=Architects Daughter;fontSource=https%3A%2F%2Ffonts.googleapis.com%2Fcss%3Ffamily%3DArchitects%2BDaughter;entryX=0.5;entryY=0;entryDx=0;entryDy=0;exitX=1.017;exitY=0.902;exitDx=0;exitDy=0;exitPerimeter=0;" parent="1" source="8PR7JuArwDbsVbcmH2Fc-1" target="8PR7JuArwDbsVbcmH2Fc-4" edge="1">
          <mxGeometry width="50" height="50" relative="1" as="geometry">
            <mxPoint x="490" y="600" as="sourcePoint" />
            <mxPoint x="540" y="550" as="targetPoint" />
          </mxGeometry>
        </mxCell>
        <mxCell id="ev5YEBmFirK6nSt7EQAG-16" value="&lt;span style=&quot;font-size: 14px;&quot;&gt;8 - Busca lançamentos&lt;/span&gt;&lt;div style=&quot;font-size: 14px;&quot;&gt;não consolidados&lt;/div&gt;" style="edgeLabel;html=1;align=center;verticalAlign=middle;resizable=0;points=[];sketch=1;hachureGap=4;jiggle=2;curveFitting=1;fontFamily=Architects Daughter;fontSource=https%3A%2F%2Ffonts.googleapis.com%2Fcss%3Ffamily%3DArchitects%2BDaughter;" parent="8PR7JuArwDbsVbcmH2Fc-25" vertex="1" connectable="0">
          <mxGeometry x="-0.1924" y="-1" relative="1" as="geometry">
            <mxPoint x="-96" y="-7" as="offset" />
          </mxGeometry>
        </mxCell>
        <mxCell id="8PR7JuArwDbsVbcmH2Fc-26" value="" style="endArrow=classic;html=1;rounded=0;sketch=1;hachureGap=4;jiggle=2;curveFitting=1;fontFamily=Architects Daughter;fontSource=https%3A%2F%2Ffonts.googleapis.com%2Fcss%3Ffamily%3DArchitects%2BDaughter;exitX=0.5;exitY=0;exitDx=0;exitDy=0;" parent="1" source="8PR7JuArwDbsVbcmH2Fc-13" edge="1">
          <mxGeometry width="50" height="50" relative="1" as="geometry">
            <mxPoint x="1115" y="680" as="sourcePoint" />
            <mxPoint x="885" y="490" as="targetPoint" />
            <Array as="points" />
          </mxGeometry>
        </mxCell>
        <mxCell id="ev5YEBmFirK6nSt7EQAG-15" value="8 - Busca lançamentos&lt;div style=&quot;font-size: 14px;&quot;&gt;não consolidados&lt;/div&gt;" style="edgeLabel;html=1;align=center;verticalAlign=middle;resizable=0;points=[];sketch=1;hachureGap=4;jiggle=2;curveFitting=1;fontFamily=Architects Daughter;fontSource=https%3A%2F%2Ffonts.googleapis.com%2Fcss%3Ffamily%3DArchitects%2BDaughter;fontSize=14;" parent="8PR7JuArwDbsVbcmH2Fc-26" vertex="1" connectable="0">
          <mxGeometry x="-0.7374" y="2" relative="1" as="geometry">
            <mxPoint x="-83" y="-85" as="offset" />
          </mxGeometry>
        </mxCell>
        <mxCell id="8PR7JuArwDbsVbcmH2Fc-33" value="" style="endArrow=classic;html=1;rounded=0;sketch=1;hachureGap=4;jiggle=2;curveFitting=1;fontFamily=Architects Daughter;fontSource=https%3A%2F%2Ffonts.googleapis.com%2Fcss%3Ffamily%3DArchitects%2BDaughter;exitX=0.5;exitY=1;exitDx=0;exitDy=0;" parent="1" source="8PR7JuArwDbsVbcmH2Fc-43" target="8PR7JuArwDbsVbcmH2Fc-12" edge="1">
          <mxGeometry width="50" height="50" relative="1" as="geometry">
            <mxPoint x="1505.5" y="280" as="sourcePoint" />
            <mxPoint x="910" y="900" as="targetPoint" />
            <Array as="points">
              <mxPoint x="1330" y="1033" />
            </Array>
          </mxGeometry>
        </mxCell>
        <mxCell id="ev5YEBmFirK6nSt7EQAG-17" value="10 - Busca dados de&lt;div style=&quot;font-size: 14px;&quot;&gt;consolidação&lt;/div&gt;" style="edgeLabel;html=1;align=center;verticalAlign=middle;resizable=0;points=[];sketch=1;hachureGap=4;jiggle=2;curveFitting=1;fontFamily=Architects Daughter;fontSource=https%3A%2F%2Ffonts.googleapis.com%2Fcss%3Ffamily%3DArchitects%2BDaughter;fontSize=14;" parent="8PR7JuArwDbsVbcmH2Fc-33" vertex="1" connectable="0">
          <mxGeometry x="-0.4523" y="3" relative="1" as="geometry">
            <mxPoint x="77" as="offset" />
          </mxGeometry>
        </mxCell>
        <mxCell id="8PR7JuArwDbsVbcmH2Fc-35" value="9 - Atualiza&lt;div&gt;consolidação&lt;div style=&quot;font-size: 14px;&quot;&gt;período&lt;/div&gt;&lt;/div&gt;" style="edgeLabel;html=1;align=center;verticalAlign=middle;resizable=0;points=[];sketch=1;hachureGap=4;jiggle=2;curveFitting=1;fontFamily=Architects Daughter;fontSource=https%3A%2F%2Ffonts.googleapis.com%2Fcss%3Ffamily%3DArchitects%2BDaughter;fontSize=14;" parent="1" vertex="1" connectable="0">
          <mxGeometry x="920.0035859659677" y="989.9986133744796" as="geometry">
            <mxPoint x="60" y="-10" as="offset" />
          </mxGeometry>
        </mxCell>
        <mxCell id="ev5YEBmFirK6nSt7EQAG-9" style="edgeStyle=orthogonalEdgeStyle;rounded=0;sketch=1;hachureGap=4;jiggle=2;curveFitting=1;orthogonalLoop=1;jettySize=auto;html=1;fontFamily=Architects Daughter;fontSource=https%3A%2F%2Ffonts.googleapis.com%2Fcss%3Ffamily%3DArchitects%2BDaughter;" parent="1" source="8PR7JuArwDbsVbcmH2Fc-36" target="ev5YEBmFirK6nSt7EQAG-8" edge="1">
          <mxGeometry relative="1" as="geometry" />
        </mxCell>
        <mxCell id="ev5YEBmFirK6nSt7EQAG-10" value="1 - Envia&lt;div style=&quot;font-size: 14px;&quot;&gt;lançamento&lt;/div&gt;" style="edgeLabel;html=1;align=center;verticalAlign=middle;resizable=0;points=[];sketch=1;hachureGap=4;jiggle=2;curveFitting=1;fontFamily=Architects Daughter;fontSource=https%3A%2F%2Ffonts.googleapis.com%2Fcss%3Ffamily%3DArchitects%2BDaughter;fontSize=14;" parent="ev5YEBmFirK6nSt7EQAG-9" vertex="1" connectable="0">
          <mxGeometry x="-0.1546" y="-4" relative="1" as="geometry">
            <mxPoint y="26" as="offset" />
          </mxGeometry>
        </mxCell>
        <mxCell id="8PR7JuArwDbsVbcmH2Fc-36" value="Aplicação&lt;div style=&quot;font-size: 16px;&quot;&gt;Cliente&lt;/div&gt;" style="ellipse;whiteSpace=wrap;html=1;aspect=fixed;sketch=1;hachureGap=4;jiggle=2;curveFitting=1;fontFamily=Architects Daughter;fontSource=https%3A%2F%2Ffonts.googleapis.com%2Fcss%3Ffamily%3DArchitects%2BDaughter;fontSize=16;fillColor=#dae8fc;strokeColor=#6c8ebf;" parent="1" vertex="1">
          <mxGeometry x="170" y="110" width="160" height="160" as="geometry" />
        </mxCell>
        <mxCell id="8PR7JuArwDbsVbcmH2Fc-37" style="edgeStyle=orthogonalEdgeStyle;rounded=0;sketch=1;hachureGap=4;jiggle=2;curveFitting=1;orthogonalLoop=1;jettySize=auto;html=1;entryX=-0.032;entryY=0.37;entryDx=0;entryDy=0;entryPerimeter=0;fontFamily=Architects Daughter;fontSource=https%3A%2F%2Ffonts.googleapis.com%2Fcss%3Ffamily%3DArchitects%2BDaughter;exitX=1;exitY=0.5;exitDx=0;exitDy=0;" parent="1" source="ev5YEBmFirK6nSt7EQAG-8" target="8PR7JuArwDbsVbcmH2Fc-1" edge="1">
          <mxGeometry relative="1" as="geometry">
            <Array as="points">
              <mxPoint x="643" y="190" />
            </Array>
          </mxGeometry>
        </mxCell>
        <mxCell id="8PR7JuArwDbsVbcmH2Fc-40" value="Coletor de&amp;nbsp;&lt;div&gt;Telemetria&lt;/div&gt;" style="whiteSpace=wrap;html=1;aspect=fixed;sketch=1;hachureGap=4;jiggle=2;curveFitting=1;fontFamily=Architects Daughter;fontSource=https%3A%2F%2Ffonts.googleapis.com%2Fcss%3Ffamily%3DArchitects%2BDaughter;fontStyle=0;fontSize=16;fillColor=#dae8fc;strokeColor=#6c8ebf;" parent="1" vertex="1">
          <mxGeometry x="1020" y="415" width="170" height="170" as="geometry" />
        </mxCell>
        <mxCell id="8PR7JuArwDbsVbcmH2Fc-43" value="Dashboard&lt;div&gt;[BI]&lt;/div&gt;" style="ellipse;whiteSpace=wrap;html=1;aspect=fixed;sketch=1;hachureGap=4;jiggle=2;curveFitting=1;fontFamily=Architects Daughter;fontSource=https%3A%2F%2Ffonts.googleapis.com%2Fcss%3Ffamily%3DArchitects%2BDaughter;fontSize=16;fillColor=#dae8fc;strokeColor=#6c8ebf;" parent="1" vertex="1">
          <mxGeometry x="1250" y="120" width="160" height="160" as="geometry" />
        </mxCell>
        <mxCell id="8PR7JuArwDbsVbcmH2Fc-44" value="Dashboard&lt;div&gt;[Observabilidade]&lt;/div&gt;" style="ellipse;whiteSpace=wrap;html=1;aspect=fixed;sketch=1;hachureGap=4;jiggle=2;curveFitting=1;fontFamily=Architects Daughter;fontSource=https%3A%2F%2Ffonts.googleapis.com%2Fcss%3Ffamily%3DArchitects%2BDaughter;fontSize=16;fillColor=#dae8fc;strokeColor=#6c8ebf;" parent="1" vertex="1">
          <mxGeometry x="1025" y="120" width="160" height="160" as="geometry" />
        </mxCell>
        <mxCell id="8PR7JuArwDbsVbcmH2Fc-47" value="" style="endArrow=classic;html=1;rounded=0;sketch=1;hachureGap=4;jiggle=2;curveFitting=1;fontFamily=Architects Daughter;fontSource=https%3A%2F%2Ffonts.googleapis.com%2Fcss%3Ffamily%3DArchitects%2BDaughter;entryX=0.5;entryY=1;entryDx=0;entryDy=0;exitX=0.665;exitY=-0.004;exitDx=0;exitDy=0;exitPerimeter=0;dashed=1;" parent="1" source="8PR7JuArwDbsVbcmH2Fc-11" target="8PR7JuArwDbsVbcmH2Fc-40" edge="1">
          <mxGeometry width="50" height="50" relative="1" as="geometry">
            <mxPoint x="820" y="680" as="sourcePoint" />
            <mxPoint x="870" y="630" as="targetPoint" />
          </mxGeometry>
        </mxCell>
        <mxCell id="8PR7JuArwDbsVbcmH2Fc-48" value="" style="endArrow=classic;html=1;rounded=0;sketch=1;hachureGap=4;jiggle=2;curveFitting=1;fontFamily=Architects Daughter;fontSource=https%3A%2F%2Ffonts.googleapis.com%2Fcss%3Ffamily%3DArchitects%2BDaughter;entryX=0;entryY=0.75;entryDx=0;entryDy=0;exitX=0.854;exitY=0;exitDx=0;exitDy=0;exitPerimeter=0;dashed=1;" parent="1" source="8PR7JuArwDbsVbcmH2Fc-8" target="8PR7JuArwDbsVbcmH2Fc-40" edge="1">
          <mxGeometry width="50" height="50" relative="1" as="geometry">
            <mxPoint x="1175" y="530" as="sourcePoint" />
            <mxPoint x="1225" y="480" as="targetPoint" />
            <Array as="points">
              <mxPoint x="490" y="543" />
            </Array>
          </mxGeometry>
        </mxCell>
        <mxCell id="8PR7JuArwDbsVbcmH2Fc-49" value="" style="endArrow=classic;html=1;rounded=0;sketch=1;hachureGap=4;jiggle=2;curveFitting=1;fontFamily=Architects Daughter;fontSource=https%3A%2F%2Ffonts.googleapis.com%2Fcss%3Ffamily%3DArchitects%2BDaughter;entryX=0.5;entryY=1;entryDx=0;entryDy=0;exitX=0.5;exitY=0;exitDx=0;exitDy=0;" parent="1" source="8PR7JuArwDbsVbcmH2Fc-40" target="8PR7JuArwDbsVbcmH2Fc-44" edge="1">
          <mxGeometry width="50" height="50" relative="1" as="geometry">
            <mxPoint x="890" y="450" as="sourcePoint" />
            <mxPoint x="940" y="400" as="targetPoint" />
            <Array as="points" />
          </mxGeometry>
        </mxCell>
        <mxCell id="ev5YEBmFirK6nSt7EQAG-1" value="&lt;div&gt;&lt;div&gt;Atualiza&lt;/div&gt;&lt;div&gt;lançamento&amp;nbsp;&lt;/div&gt;&lt;div&gt;[Função Serveless]&lt;/div&gt;&lt;/div&gt;" style="whiteSpace=wrap;html=1;aspect=fixed;sketch=1;hachureGap=4;jiggle=2;curveFitting=1;fontFamily=Architects Daughter;fontSource=https%3A%2F%2Ffonts.googleapis.com%2Fcss%3Ffamily%3DArchitects%2BDaughter;fontStyle=0;fontSize=16;fillColor=#e1d5e7;strokeColor=#9673a6;" parent="1" vertex="1">
          <mxGeometry x="350" y="950" width="170" height="170" as="geometry" />
        </mxCell>
        <mxCell id="ev5YEBmFirK6nSt7EQAG-2" style="edgeStyle=orthogonalEdgeStyle;rounded=0;sketch=1;hachureGap=4;jiggle=2;curveFitting=1;orthogonalLoop=1;jettySize=auto;html=1;exitX=0;exitY=0.5;exitDx=0;exitDy=0;entryX=1;entryY=0.5;entryDx=0;entryDy=0;entryPerimeter=0;fontFamily=Architects Daughter;fontSource=https%3A%2F%2Ffonts.googleapis.com%2Fcss%3Ffamily%3DArchitects%2BDaughter;" parent="1" source="ev5YEBmFirK6nSt7EQAG-1" target="8PR7JuArwDbsVbcmH2Fc-2" edge="1">
          <mxGeometry relative="1" as="geometry" />
        </mxCell>
        <mxCell id="ev5YEBmFirK6nSt7EQAG-14" value="6 - Salva&lt;div style=&quot;font-size: 14px;&quot;&gt;lançamento&lt;/div&gt;&lt;div style=&quot;font-size: 14px;&quot;&gt;consolidado&lt;/div&gt;" style="edgeLabel;html=1;align=center;verticalAlign=middle;resizable=0;points=[];sketch=1;hachureGap=4;jiggle=2;curveFitting=1;fontFamily=Architects Daughter;fontSource=https%3A%2F%2Ffonts.googleapis.com%2Fcss%3Ffamily%3DArchitects%2BDaughter;fontSize=14;" parent="ev5YEBmFirK6nSt7EQAG-2" vertex="1" connectable="0">
          <mxGeometry x="0.1499" y="2" relative="1" as="geometry">
            <mxPoint x="4" y="30" as="offset" />
          </mxGeometry>
        </mxCell>
        <mxCell id="ev5YEBmFirK6nSt7EQAG-3" value="Fila" style="shape=cylinder3;whiteSpace=wrap;html=1;boundedLbl=1;backgroundOutline=1;size=15;sketch=1;hachureGap=4;jiggle=2;curveFitting=1;fontFamily=Architects Daughter;fontSource=https%3A%2F%2Ffonts.googleapis.com%2Fcss%3Ffamily%3DArchitects%2BDaughter;rotation=90;fontStyle=0;fontSize=16;horizontal=0;fillColor=#fff2cc;strokeColor=#d6b656;" parent="1" vertex="1">
          <mxGeometry x="640" y="940" width="40" height="106.67" as="geometry" />
        </mxCell>
        <mxCell id="ev5YEBmFirK6nSt7EQAG-4" value="" style="endArrow=classic;html=1;rounded=0;sketch=1;hachureGap=4;jiggle=2;curveFitting=1;fontFamily=Architects Daughter;fontSource=https%3A%2F%2Ffonts.googleapis.com%2Fcss%3Ffamily%3DArchitects%2BDaughter;entryX=1;entryY=0.25;entryDx=0;entryDy=0;dashed=1;exitX=0.5;exitY=1;exitDx=0;exitDy=0;exitPerimeter=0;" parent="1" source="ev5YEBmFirK6nSt7EQAG-3" target="ev5YEBmFirK6nSt7EQAG-1" edge="1">
          <mxGeometry width="50" height="50" relative="1" as="geometry">
            <mxPoint x="613.56" y="938.5699999999999" as="sourcePoint" />
            <mxPoint x="700.56" y="938.5699999999999" as="targetPoint" />
            <Array as="points" />
          </mxGeometry>
        </mxCell>
        <mxCell id="ev5YEBmFirK6nSt7EQAG-5" value="5 - Envia lan;amento&lt;div&gt;consolidado&lt;/div&gt;" style="edgeLabel;html=1;align=center;verticalAlign=middle;resizable=0;points=[];sketch=1;hachureGap=4;jiggle=2;curveFitting=1;fontFamily=Architects Daughter;fontSource=https%3A%2F%2Ffonts.googleapis.com%2Fcss%3Ffamily%3DArchitects%2BDaughter;fontSize=14;" parent="ev5YEBmFirK6nSt7EQAG-4" vertex="1" connectable="0">
          <mxGeometry x="-0.3037" relative="1" as="geometry">
            <mxPoint x="83" y="53" as="offset" />
          </mxGeometry>
        </mxCell>
        <mxCell id="ev5YEBmFirK6nSt7EQAG-6" value="" style="endArrow=classic;html=1;rounded=0;sketch=1;hachureGap=4;jiggle=2;curveFitting=1;fontFamily=Architects Daughter;fontSource=https%3A%2F%2Ffonts.googleapis.com%2Fcss%3Ffamily%3DArchitects%2BDaughter;entryX=0.5;entryY=0;entryDx=0;entryDy=0;dashed=1;entryPerimeter=0;exitX=0.25;exitY=1;exitDx=0;exitDy=0;" parent="1" source="8PR7JuArwDbsVbcmH2Fc-13" target="ev5YEBmFirK6nSt7EQAG-3" edge="1">
          <mxGeometry width="50" height="50" relative="1" as="geometry">
            <mxPoint x="730" y="940" as="sourcePoint" />
            <mxPoint x="530" y="1045" as="targetPoint" />
            <Array as="points">
              <mxPoint x="840" y="993" />
            </Array>
          </mxGeometry>
        </mxCell>
        <mxCell id="ev5YEBmFirK6nSt7EQAG-8" value="WAF&lt;div style=&quot;font-size: 16px;&quot;&gt;[Firewall]&lt;/div&gt;" style="shape=step;perimeter=stepPerimeter;whiteSpace=wrap;html=1;fixedSize=1;sketch=1;hachureGap=4;jiggle=2;curveFitting=1;fontFamily=Architects Daughter;fontSource=https%3A%2F%2Ffonts.googleapis.com%2Fcss%3Ffamily%3DArchitects%2BDaughter;fillColor=#f8cecc;strokeColor=#b85450;fontSize=16;" parent="1" vertex="1">
          <mxGeometry x="480" y="150" width="120" height="80" as="geometry" />
        </mxCell>
      </root>
    </mxGraphModel>
  </diagram>
</mxfile>
